{"title":"Gridiron.Gang.2006.1080p.BluRay.H264.AAC-RARBG","uid":11954009,"size":2565785815,"categoryP":"video","categoryS":"hd___movies","magnet":"?xt=urn:btih:ed5eeed5f642ff50939e964f49ac5f71cf4c0d50&amp;dn=Gridiron.Gang.2006.1080p.BluRay.H264.AAC-RARBG&amp;tr=udp%3A%2F%2Ftracker.openbittorrent.com%3A80&amp;tr=udp%3A%2F%2Fopen.demonii.com%3A1337&amp;tr=udp%3A%2F%2Ftracker.coppersurfer.tk%3A6969&amp;tr=udp%3A%2F%2Fexodus.desync.com%3A6969","seeders":0,"leechers":0,"uploader":"vickey1992","files":4,"time":1432306760,"description":"Video\nID                                       : 1\nFormat                                   : AVC\nFormat/Info                              : Advanced Video Codec\nFormat profile                           : &lt;a class=&quot;__cf_email__&quot; href=&quot;/cdn-cgi/l/email-protection&quot; data-cfemail=&quot;460e2f212e060a726877&quot;&gt;[email&amp;#160;protected]&lt;/a&gt;&lt;script data-cfhash='f9e31' type=&quot;text/javascript&quot;&gt;\n/* &lt;![CDATA[ */!function(){try{var t=&quot;currentScript&quot;in document?document.currentScript:function(){for(var t=document.getElementsByTagName(&quot;script&quot;),e=t.length;e--;)if(t[e].getAttribute(&quot;data-cfhash&quot;))return t[e]}();if(t&amp;&amp;t.previousSibling){var e,r,n,i,c=t.previousSibling,a=c.getAttribute(&quot;data-cfemail&quot;);if(a){for(e=&quot;&quot;,r=parseInt(a.substr(0,2),16),n=2;a.length-n;n+=2)i=parseInt(a.substr(n,2),16)^r,e+=String.fromCharCode(i);e=document.createTextNode(e),c.parentNode.replaceChild(e,c)}t.parentNode.removeChild(t);}}catch(u){}}()/* ]]&gt; */&lt;/script&gt;\nFormat settings, CABAC                   : Yes\nFormat settings, ReFrames                : 4 frames\nCodec ID                                 : avc1\nCodec ID/Info                            : Advanced Video Coding\nDuration                                 : 2h 5mn\nBit rate                                 : 2 500 Kbps\nWidth                                    : 1 920 pixels\nHeight                                   : 800 pixels\nDisplay aspect ratio                     : 2.40:1\nFrame rate mode                          : Constant\nFrame rate                               : 23.976 fps\nColor space                              : YUV\nChroma subsampling                       : 4:2:0\nBit depth                                : 8 bits\nScan type                                : Progressive\nBits/(Pixel*Frame)                       : 0.068\nStream size                              : 2.19 GiB (92%)\nWriting library                          : x264 core 144 r2525M 40bb568\nEncoding settings                        : cabac=1 / ref=4 / deblock=1:-1:-1 / analyse=0x3:0x113 / me=umh / subme=9 / psy=1 / psy_rd=1.00:0.15 / mixed_ref=1 / me_range=24 / chroma_me=1 / trellis=2 / 8x8dct=1 / cqm=0 / deadzone=21,11 / fast_pskip=1 / chroma_qp_offset=-3 / threads=32 / lookahead_threads=4 / sliced_threads=0 / nr=0 / decimate=1 / interlaced=0 / bluray_compat=0 / constrained_intra=0 / bframes=3 / b_pyramid=2 / b_adapt=1 / b_bias=0 / direct=1 / weightb=1 / open_gop=0 / weightp=2 / keyint=250 / keyint_min=25 / scenecut=40 / intra_refresh=0 / rc_lookahead=50 / rc=2pass / mbtree=1 / bitrate=2500 / ratetol=1.0 / qcomp=0.60 / qpmin=0 / qpmax=69 / qpstep=4 / cplxblur=20.0 / qblur=0.5 / vbv_maxrate=31250 / vbv_bufsize=31250 / nal_hrd=none / filler=0 / ip_ratio=1.40 / aq=3:1.00\nEncoded date                             : UTC 1904-01-01 00:00:00\nTagged date                              : UTC 1904-01-01 00:00:00\n\nAudio\nID                                       : 2\nFormat                                   : AAC\nFormat/Info                              : Advanced Audio Codec\nFormat profile                           : LC\nCodec ID                                 : 40\nDuration                                 : 2h 5mn\nDuration_LastFrame                       : 32ms\nBit rate mode                            : Constant\nBit rate                                 : 224 Kbps\nChannel(s)                               : 2 channels\nChannel(s)_Original                      : 6 channels\nChannel positions                        : Front: L C R, Side: L R, LFE\nSampling rate                            : 48.0 KHz\nCompression mode                         : Lossy\nStream size                              : 201 MiB (8%)\nLanguage                                 : English\nEncoded date                             : UTC 1904-01-01 00:00:00\nTagged date                              : UTC 1904-01-01 00:00:00\n\nMenu #1\nID                                       : 3\nCodec ID                                 : text\nDuration                                 : 2h 5mn\nLanguage                                 : English\nEncoded date                             : UTC 1904-01-01 00:00:00\nTagged date                              : UTC 1904-01-01 00:00:00\nBit rate mode                            : CBR\n00:00:00.000                             : 00:00:00.000\n00:10:24.834                             : 00:10:24.791\n00:20:00.492                             : 00:20:00.449\n00:27:42.329                             : 00:27:42.286\n00:35:05.688                             : 00:35:05.645\n00:42:50.736                             : 00:42:50.693\n00:51:27.377                             : 00:51:27.334\n00:58:22.125                             : 00:58:22.082\n01:03:27.513                             : 01:03:27.470\n01:09:40.845                             : 01:09:40.802\n01:17:52.336                             : 01:17:52.293\n01:24:39.409                             : 01:24:39.366\n01:34:34.670                             : 01:34:34.627\n01:43:06.140                             : 01:43:06.097\n01:50:25.537                             : 01:50:25.494\n01:56:57.845                             : 01:56:57.802\n\nMenu #2\n00:00:00.043                             : 00:00:00.000\n00:10:24.834                             : 00:10:24.791\n00:20:00.492                             : 00:20:00.449\n00:27:42.329                             : 00:27:42.286\n00:35:05.688                             : 00:35:05.645\n00:42:50.736                             : 00:42:50.693\n00:51:27.377                             : 00:51:27.334\n00:58:22.125                             : 00:58:22.082\n01:03:27.513                             : 01:03:27.470\n01:09:40.845                             : 01:09:40.802\n01:17:52.336                             : 01:17:52.293\n01:24:39.409                             : 01:24:39.366\n01:34:34.670                             : 01:34:34.627\n01:43:06.140                             : 01:43:06.097\n01:50:25.537                             : 01:50:25.494\n01:56:57.845                             : 01:56:57.802","torrent":{"xt":"urn:btih:ed5eeed5f642ff50939e964f49ac5f71cf4c0d50","amp;dn":"Gridiron.Gang.2006.1080p.BluRay.H264.AAC-RARBG","amp;tr":["udp%3A%2F%2Ftracker.openbittorrent.com%3A80","udp%3A%2F%2Fopen.demonii.com%3A1337","udp%3A%2F%2Ftracker.coppersurfer.tk%3A6969","udp%3A%2F%2Fexodus.desync.com%3A6969"],"infoHash":"ed5eeed5f642ff50939e964f49ac5f71cf4c0d50","infoHashBuffer":{"type":"Buffer","data":[237,94,238,213,246,66,255,80,147,158,150,79,73,172,95,113,207,76,13,80]},"announce":[],"urlList":[]}}